<mxfile host="app.diagrams.net" agent="Mozilla/5.0 (Windows NT 10.0; Win64; x64) AppleWebKit/537.36 (KHTML, like Gecko) Chrome/140.0.0.0 Safari/537.36" version="28.2.5">
  <diagram name="หน้า-1" id="HB-XugLZuMpmlySfsrlX">
    <mxGraphModel dx="2194" dy="1143" grid="1" gridSize="10" guides="1" tooltips="1" connect="1" arrows="1" fold="1" page="1" pageScale="1" pageWidth="827" pageHeight="1169" math="0" shadow="0">
      <root>
        <mxCell id="0" />
        <mxCell id="1" parent="0" />
        <mxCell id="27nJObNFogI77tBs9ip2-89" value="Start" style="ellipse;whiteSpace=wrap;html=1;" vertex="1" parent="1">
          <mxGeometry x="345" width="120" height="40" as="geometry" />
        </mxCell>
        <mxCell id="27nJObNFogI77tBs9ip2-90" value="เตรียมอุปกรณ์ที่จะทำ" style="rectangle;whiteSpace=wrap;html=1;" vertex="1" parent="1">
          <mxGeometry x="322.5" y="80" width="165" height="40" as="geometry" />
        </mxCell>
        <mxCell id="27nJObNFogI77tBs9ip2-91" value="เตรียมวัตถุดิบหลัก&#xa;(ข้าวสวย, หมูกรอบ, ใบกระเพรา, พริก, กระเทียม, น้ำปลา, น้ำตาล, น้ำมัน, ไข่เยี่ยวม้า)" style="rectangle;whiteSpace=wrap;html=1;" vertex="1" parent="1">
          <mxGeometry x="200" y="160" width="410" height="40" as="geometry" />
        </mxCell>
        <mxCell id="27nJObNFogI77tBs9ip2-92" value="" style="edgeStyle=orthogonalEdgeStyle;rounded=0;orthogonalLoop=1;jettySize=auto;html=1;" edge="1" parent="1" source="27nJObNFogI77tBs9ip2-94" target="27nJObNFogI77tBs9ip2-96">
          <mxGeometry relative="1" as="geometry" />
        </mxCell>
        <mxCell id="27nJObNFogI77tBs9ip2-93" value="" style="edgeStyle=orthogonalEdgeStyle;rounded=0;orthogonalLoop=1;jettySize=auto;html=1;" edge="1" parent="1" source="27nJObNFogI77tBs9ip2-94" target="27nJObNFogI77tBs9ip2-147">
          <mxGeometry relative="1" as="geometry" />
        </mxCell>
        <mxCell id="27nJObNFogI77tBs9ip2-94" value="ข้าวสวยพร้อมหรือไม่?" style="rhombus;whiteSpace=wrap;html=1;" vertex="1" parent="1">
          <mxGeometry x="305" y="240" width="200" height="80" as="geometry" />
        </mxCell>
        <mxCell id="27nJObNFogI77tBs9ip2-95" style="edgeStyle=orthogonalEdgeStyle;rounded=0;orthogonalLoop=1;jettySize=auto;html=1;entryX=1;entryY=0.5;entryDx=0;entryDy=0;" edge="1" parent="1" source="27nJObNFogI77tBs9ip2-96" target="27nJObNFogI77tBs9ip2-147">
          <mxGeometry relative="1" as="geometry">
            <Array as="points">
              <mxPoint x="685" y="385" />
            </Array>
          </mxGeometry>
        </mxCell>
        <mxCell id="27nJObNFogI77tBs9ip2-96" value="หุง/เตรียมข้าวสวยให้เรียบร้อย" style="rectangle;whiteSpace=wrap;html=1;" vertex="1" parent="1">
          <mxGeometry x="605" y="260" width="170" height="40" as="geometry" />
        </mxCell>
        <mxCell id="27nJObNFogI77tBs9ip2-97" value="" style="edgeStyle=orthogonalEdgeStyle;rounded=0;orthogonalLoop=1;jettySize=auto;html=1;" edge="1" parent="1" source="27nJObNFogI77tBs9ip2-99" target="27nJObNFogI77tBs9ip2-101">
          <mxGeometry relative="1" as="geometry" />
        </mxCell>
        <mxCell id="27nJObNFogI77tBs9ip2-98" value="" style="edgeStyle=orthogonalEdgeStyle;rounded=0;orthogonalLoop=1;jettySize=auto;html=1;" edge="1" parent="1" source="27nJObNFogI77tBs9ip2-99" target="27nJObNFogI77tBs9ip2-150">
          <mxGeometry relative="1" as="geometry" />
        </mxCell>
        <mxCell id="27nJObNFogI77tBs9ip2-99" value="หมูกรอบพร้อมหรือไม่?" style="rhombus;whiteSpace=wrap;html=1;" vertex="1" parent="1">
          <mxGeometry x="305" y="480" width="200" height="80" as="geometry" />
        </mxCell>
        <mxCell id="27nJObNFogI77tBs9ip2-100" value="" style="edgeStyle=orthogonalEdgeStyle;rounded=0;orthogonalLoop=1;jettySize=auto;html=1;" edge="1" parent="1" source="27nJObNFogI77tBs9ip2-101" target="27nJObNFogI77tBs9ip2-138">
          <mxGeometry relative="1" as="geometry" />
        </mxCell>
        <mxCell id="27nJObNFogI77tBs9ip2-101" value="เตรียมหมูกรอบ" style="rectangle;whiteSpace=wrap;html=1;strokeWidth=1;" vertex="1" parent="1">
          <mxGeometry x="605" y="500" width="120" height="40" as="geometry" />
        </mxCell>
        <mxCell id="27nJObNFogI77tBs9ip2-102" value="" style="edgeStyle=orthogonalEdgeStyle;rounded=0;orthogonalLoop=1;jettySize=auto;html=1;" edge="1" parent="1" source="27nJObNFogI77tBs9ip2-103" target="27nJObNFogI77tBs9ip2-105">
          <mxGeometry relative="1" as="geometry" />
        </mxCell>
        <mxCell id="27nJObNFogI77tBs9ip2-103" value="แยกใบกระเพราเด็ดก้าน และล้าง/ซับให้แห้ง" style="rectangle;whiteSpace=wrap;html=1;" vertex="1" parent="1">
          <mxGeometry x="285" y="680" width="240" height="40" as="geometry" />
        </mxCell>
        <mxCell id="27nJObNFogI77tBs9ip2-104" value="" style="edgeStyle=orthogonalEdgeStyle;rounded=0;orthogonalLoop=1;jettySize=auto;html=1;" edge="1" parent="1" source="27nJObNFogI77tBs9ip2-105" target="27nJObNFogI77tBs9ip2-107">
          <mxGeometry relative="1" as="geometry" />
        </mxCell>
        <mxCell id="27nJObNFogI77tBs9ip2-105" value="สับกระเทียมและพริก พักไว้" style="rectangle;whiteSpace=wrap;html=1;" vertex="1" parent="1">
          <mxGeometry x="325" y="760" width="160" height="40" as="geometry" />
        </mxCell>
        <mxCell id="27nJObNFogI77tBs9ip2-106" value="" style="edgeStyle=orthogonalEdgeStyle;rounded=0;orthogonalLoop=1;jettySize=auto;html=1;" edge="1" parent="1" source="27nJObNFogI77tBs9ip2-107" target="27nJObNFogI77tBs9ip2-109">
          <mxGeometry relative="1" as="geometry" />
        </mxCell>
        <mxCell id="27nJObNFogI77tBs9ip2-107" value="ปอกและหั่นไข่เยี่ยวม้า" style="rectangle;whiteSpace=wrap;html=1;" vertex="1" parent="1">
          <mxGeometry x="325" y="840" width="160" height="40" as="geometry" />
        </mxCell>
        <mxCell id="27nJObNFogI77tBs9ip2-108" value="" style="edgeStyle=orthogonalEdgeStyle;rounded=0;orthogonalLoop=1;jettySize=auto;html=1;" edge="1" parent="1" source="27nJObNFogI77tBs9ip2-109" target="27nJObNFogI77tBs9ip2-152">
          <mxGeometry relative="1" as="geometry" />
        </mxCell>
        <mxCell id="27nJObNFogI77tBs9ip2-109" value="ตั้งกระทะ ใส่น้ำมัน (ไฟกลาง)" style="rectangle;whiteSpace=wrap;html=1;" vertex="1" parent="1">
          <mxGeometry x="325" y="920" width="160" height="40" as="geometry" />
        </mxCell>
        <mxCell id="27nJObNFogI77tBs9ip2-110" value="" style="edgeStyle=orthogonalEdgeStyle;rounded=0;orthogonalLoop=1;jettySize=auto;html=1;" edge="1" parent="1" source="27nJObNFogI77tBs9ip2-112" target="27nJObNFogI77tBs9ip2-114">
          <mxGeometry relative="1" as="geometry" />
        </mxCell>
        <mxCell id="27nJObNFogI77tBs9ip2-111" value="" style="edgeStyle=orthogonalEdgeStyle;rounded=0;orthogonalLoop=1;jettySize=auto;html=1;" edge="1" parent="1" source="27nJObNFogI77tBs9ip2-112" target="27nJObNFogI77tBs9ip2-115">
          <mxGeometry relative="1" as="geometry" />
        </mxCell>
        <mxCell id="27nJObNFogI77tBs9ip2-112" value="น้ำมันร้อนหรือยัง?" style="rhombus;whiteSpace=wrap;html=1;" vertex="1" parent="1">
          <mxGeometry x="305" y="1040" width="200" height="80" as="geometry" />
        </mxCell>
        <mxCell id="27nJObNFogI77tBs9ip2-113" style="edgeStyle=orthogonalEdgeStyle;rounded=0;orthogonalLoop=1;jettySize=auto;html=1;entryX=1;entryY=0.5;entryDx=0;entryDy=0;" edge="1" parent="1" source="27nJObNFogI77tBs9ip2-114" target="27nJObNFogI77tBs9ip2-152">
          <mxGeometry relative="1" as="geometry">
            <Array as="points">
              <mxPoint x="665" y="1005" />
            </Array>
          </mxGeometry>
        </mxCell>
        <mxCell id="27nJObNFogI77tBs9ip2-114" value="รอให้น้ำมันร้อน" style="rectangle;whiteSpace=wrap;html=1;" vertex="1" parent="1">
          <mxGeometry x="605" y="1060" width="120" height="40" as="geometry" />
        </mxCell>
        <mxCell id="27nJObNFogI77tBs9ip2-115" value="ผัดกระเทียมและพริกจนหอม" style="rectangle;whiteSpace=wrap;html=1;" vertex="1" parent="1">
          <mxGeometry x="320" y="1160" width="170" height="40" as="geometry" />
        </mxCell>
        <mxCell id="27nJObNFogI77tBs9ip2-116" value="" style="edgeStyle=orthogonalEdgeStyle;rounded=0;orthogonalLoop=1;jettySize=auto;html=1;" edge="1" parent="1" source="27nJObNFogI77tBs9ip2-117" target="27nJObNFogI77tBs9ip2-119">
          <mxGeometry relative="1" as="geometry" />
        </mxCell>
        <mxCell id="27nJObNFogI77tBs9ip2-117" value="เติมหมูกรอบลงผัด ให้ความร้อนทั่วถึง" style="rectangle;whiteSpace=wrap;html=1;" vertex="1" parent="1">
          <mxGeometry x="285" y="1240" width="240" height="40" as="geometry" />
        </mxCell>
        <mxCell id="27nJObNFogI77tBs9ip2-118" value="" style="edgeStyle=orthogonalEdgeStyle;rounded=0;orthogonalLoop=1;jettySize=auto;html=1;" edge="1" parent="1" source="27nJObNFogI77tBs9ip2-119" target="27nJObNFogI77tBs9ip2-121">
          <mxGeometry relative="1" as="geometry" />
        </mxCell>
        <mxCell id="27nJObNFogI77tBs9ip2-119" value="ปรุงรสให้ได้รสชาติที่ต้องการ แล้วผัด" style="rectangle;whiteSpace=wrap;html=1;" vertex="1" parent="1">
          <mxGeometry x="285" y="1320" width="240" height="40" as="geometry" />
        </mxCell>
        <mxCell id="27nJObNFogI77tBs9ip2-120" value="" style="edgeStyle=orthogonalEdgeStyle;rounded=0;orthogonalLoop=1;jettySize=auto;html=1;" edge="1" parent="1" source="27nJObNFogI77tBs9ip2-121" target="27nJObNFogI77tBs9ip2-123">
          <mxGeometry relative="1" as="geometry" />
        </mxCell>
        <mxCell id="27nJObNFogI77tBs9ip2-121" value="ใส่ใบกระเพราพลิกเร็ว ๆ ให้เข้ากัน" style="rectangle;whiteSpace=wrap;html=1;" vertex="1" parent="1">
          <mxGeometry x="285" y="1400" width="240" height="40" as="geometry" />
        </mxCell>
        <mxCell id="27nJObNFogI77tBs9ip2-122" value="" style="edgeStyle=orthogonalEdgeStyle;rounded=0;orthogonalLoop=1;jettySize=auto;html=1;" edge="1" parent="1" source="27nJObNFogI77tBs9ip2-123" target="27nJObNFogI77tBs9ip2-156">
          <mxGeometry relative="1" as="geometry" />
        </mxCell>
        <mxCell id="27nJObNFogI77tBs9ip2-123" value="ตักข้าวลงจาน" style="rectangle;whiteSpace=wrap;html=1;" vertex="1" parent="1">
          <mxGeometry x="325" y="1480" width="160" height="40" as="geometry" />
        </mxCell>
        <mxCell id="27nJObNFogI77tBs9ip2-124" value="" style="edgeStyle=orthogonalEdgeStyle;rounded=0;orthogonalLoop=1;jettySize=auto;html=1;" edge="1" parent="1" source="27nJObNFogI77tBs9ip2-125" target="27nJObNFogI77tBs9ip2-126">
          <mxGeometry relative="1" as="geometry" />
        </mxCell>
        <mxCell id="27nJObNFogI77tBs9ip2-125" value="โรยกระเพราหมูกรอบลงบนข้าวที่เตรียมไว้" style="rectangle;whiteSpace=wrap;html=1;" vertex="1" parent="1">
          <mxGeometry x="285" y="1640" width="240" height="40" as="geometry" />
        </mxCell>
        <mxCell id="27nJObNFogI77tBs9ip2-126" value="พร้อมรับประทาน" style="parallelogram;whiteSpace=wrap;html=1;" vertex="1" parent="1">
          <mxGeometry x="325" y="1720" width="160" height="40" as="geometry" />
        </mxCell>
        <mxCell id="27nJObNFogI77tBs9ip2-127" value="Stop" style="ellipse;whiteSpace=wrap;html=1;" vertex="1" parent="1">
          <mxGeometry x="345" y="1800" width="120" height="40" as="geometry" />
        </mxCell>
        <mxCell id="27nJObNFogI77tBs9ip2-128" edge="1" parent="1" source="27nJObNFogI77tBs9ip2-89" target="27nJObNFogI77tBs9ip2-90">
          <mxGeometry relative="1" as="geometry" />
        </mxCell>
        <mxCell id="27nJObNFogI77tBs9ip2-129" edge="1" parent="1" source="27nJObNFogI77tBs9ip2-90" target="27nJObNFogI77tBs9ip2-91">
          <mxGeometry relative="1" as="geometry" />
        </mxCell>
        <mxCell id="27nJObNFogI77tBs9ip2-130" edge="1" parent="1" source="27nJObNFogI77tBs9ip2-91" target="27nJObNFogI77tBs9ip2-94">
          <mxGeometry relative="1" as="geometry" />
        </mxCell>
        <mxCell id="27nJObNFogI77tBs9ip2-131" edge="1" parent="1" source="27nJObNFogI77tBs9ip2-115" target="27nJObNFogI77tBs9ip2-117">
          <mxGeometry relative="1" as="geometry" />
        </mxCell>
        <mxCell id="27nJObNFogI77tBs9ip2-132" edge="1" parent="1" source="27nJObNFogI77tBs9ip2-126" target="27nJObNFogI77tBs9ip2-127">
          <mxGeometry relative="1" as="geometry" />
        </mxCell>
        <mxCell id="27nJObNFogI77tBs9ip2-133" edge="1" parent="1" source="27nJObNFogI77tBs9ip2-126" target="27nJObNFogI77tBs9ip2-127">
          <mxGeometry relative="1" as="geometry" />
        </mxCell>
        <mxCell id="27nJObNFogI77tBs9ip2-134" edge="1" parent="1" source="27nJObNFogI77tBs9ip2-126" target="27nJObNFogI77tBs9ip2-127">
          <mxGeometry relative="1" as="geometry" />
        </mxCell>
        <mxCell id="27nJObNFogI77tBs9ip2-135" edge="1" parent="1" source="27nJObNFogI77tBs9ip2-126" target="27nJObNFogI77tBs9ip2-127">
          <mxGeometry relative="1" as="geometry" />
        </mxCell>
        <mxCell id="27nJObNFogI77tBs9ip2-136" edge="1" parent="1" source="27nJObNFogI77tBs9ip2-126" target="27nJObNFogI77tBs9ip2-127">
          <mxGeometry relative="1" as="geometry" />
        </mxCell>
        <mxCell id="27nJObNFogI77tBs9ip2-137" value="" style="edgeStyle=orthogonalEdgeStyle;rounded=0;orthogonalLoop=1;jettySize=auto;html=1;" edge="1" parent="1" source="27nJObNFogI77tBs9ip2-138" target="27nJObNFogI77tBs9ip2-140">
          <mxGeometry relative="1" as="geometry" />
        </mxCell>
        <mxCell id="27nJObNFogI77tBs9ip2-138" value="ล้างและหั่นหมูให้พอดีคำ" style="rectangle;whiteSpace=wrap;html=1;" vertex="1" parent="1">
          <mxGeometry x="765" y="500" width="160" height="40" as="geometry" />
        </mxCell>
        <mxCell id="27nJObNFogI77tBs9ip2-139" value="" style="edgeStyle=orthogonalEdgeStyle;rounded=0;orthogonalLoop=1;jettySize=auto;html=1;" edge="1" parent="1" source="27nJObNFogI77tBs9ip2-140" target="27nJObNFogI77tBs9ip2-142">
          <mxGeometry relative="1" as="geometry" />
        </mxCell>
        <mxCell id="27nJObNFogI77tBs9ip2-140" value="ลวก/ปรุงรสเบื้องต้น" style="rectangle;whiteSpace=wrap;html=1;" vertex="1" parent="1">
          <mxGeometry x="965.5" y="500" width="119.5" height="40" as="geometry" />
        </mxCell>
        <mxCell id="27nJObNFogI77tBs9ip2-141" value="" style="edgeStyle=orthogonalEdgeStyle;rounded=0;orthogonalLoop=1;jettySize=auto;html=1;" edge="1" parent="1" source="27nJObNFogI77tBs9ip2-142" target="27nJObNFogI77tBs9ip2-144">
          <mxGeometry relative="1" as="geometry" />
        </mxCell>
        <mxCell id="27nJObNFogI77tBs9ip2-142" value="คลุกแป้งหรือทำให้ผิวแห้ง เพื่อความกรอบ" style="rectangle;whiteSpace=wrap;html=1;" vertex="1" parent="1">
          <mxGeometry x="1125" y="500" width="240" height="40" as="geometry" />
        </mxCell>
        <mxCell id="27nJObNFogI77tBs9ip2-143" style="edgeStyle=orthogonalEdgeStyle;rounded=0;orthogonalLoop=1;jettySize=auto;html=1;entryX=1;entryY=0.5;entryDx=0;entryDy=0;" edge="1" parent="1" source="27nJObNFogI77tBs9ip2-144" target="27nJObNFogI77tBs9ip2-150">
          <mxGeometry relative="1" as="geometry">
            <Array as="points">
              <mxPoint x="1505" y="615" />
            </Array>
          </mxGeometry>
        </mxCell>
        <mxCell id="27nJObNFogI77tBs9ip2-144" value="ทอดหมูจนกรอบ แล้วสะเด็ดน้ำมัน" style="rectangle;whiteSpace=wrap;html=1;" vertex="1" parent="1">
          <mxGeometry x="1405" y="500" width="200" height="40" as="geometry" />
        </mxCell>
        <mxCell id="27nJObNFogI77tBs9ip2-145" value="FALSE" style="text;html=1;align=center;verticalAlign=middle;whiteSpace=wrap;rounded=0;" vertex="1" parent="1">
          <mxGeometry x="505" y="250" width="60" height="30" as="geometry" />
        </mxCell>
        <mxCell id="27nJObNFogI77tBs9ip2-146" value="" style="edgeStyle=orthogonalEdgeStyle;rounded=0;orthogonalLoop=1;jettySize=auto;html=1;" edge="1" parent="1" source="27nJObNFogI77tBs9ip2-147" target="27nJObNFogI77tBs9ip2-99">
          <mxGeometry relative="1" as="geometry" />
        </mxCell>
        <mxCell id="27nJObNFogI77tBs9ip2-147" value="" style="ellipse;whiteSpace=wrap;html=1;aspect=fixed;" vertex="1" parent="1">
          <mxGeometry x="400" y="380" width="10" height="10" as="geometry" />
        </mxCell>
        <mxCell id="27nJObNFogI77tBs9ip2-148" value="TRUE" style="text;html=1;align=center;verticalAlign=middle;whiteSpace=wrap;rounded=0;" vertex="1" parent="1">
          <mxGeometry x="405" y="320" width="60" height="30" as="geometry" />
        </mxCell>
        <mxCell id="27nJObNFogI77tBs9ip2-149" value="" style="edgeStyle=orthogonalEdgeStyle;rounded=0;orthogonalLoop=1;jettySize=auto;html=1;" edge="1" parent="1" source="27nJObNFogI77tBs9ip2-150" target="27nJObNFogI77tBs9ip2-103">
          <mxGeometry relative="1" as="geometry" />
        </mxCell>
        <mxCell id="27nJObNFogI77tBs9ip2-150" value="" style="ellipse;whiteSpace=wrap;html=1;aspect=fixed;" vertex="1" parent="1">
          <mxGeometry x="400" y="610" width="10" height="10" as="geometry" />
        </mxCell>
        <mxCell id="27nJObNFogI77tBs9ip2-151" value="" style="edgeStyle=orthogonalEdgeStyle;rounded=0;orthogonalLoop=1;jettySize=auto;html=1;" edge="1" parent="1" source="27nJObNFogI77tBs9ip2-152" target="27nJObNFogI77tBs9ip2-112">
          <mxGeometry relative="1" as="geometry" />
        </mxCell>
        <mxCell id="27nJObNFogI77tBs9ip2-152" value="" style="ellipse;whiteSpace=wrap;html=1;aspect=fixed;" vertex="1" parent="1">
          <mxGeometry x="400" y="1000" width="10" height="10" as="geometry" />
        </mxCell>
        <mxCell id="27nJObNFogI77tBs9ip2-153" value="FALSE" style="text;html=1;align=center;verticalAlign=middle;whiteSpace=wrap;rounded=0;" vertex="1" parent="1">
          <mxGeometry x="505" y="490" width="60" height="30" as="geometry" />
        </mxCell>
        <mxCell id="27nJObNFogI77tBs9ip2-154" value="TRUE" style="text;html=1;align=center;verticalAlign=middle;whiteSpace=wrap;rounded=0;" vertex="1" parent="1">
          <mxGeometry x="405" y="560" width="60" height="30" as="geometry" />
        </mxCell>
        <mxCell id="27nJObNFogI77tBs9ip2-155" value="" style="edgeStyle=orthogonalEdgeStyle;rounded=0;orthogonalLoop=1;jettySize=auto;html=1;" edge="1" parent="1" source="27nJObNFogI77tBs9ip2-156" target="27nJObNFogI77tBs9ip2-125">
          <mxGeometry relative="1" as="geometry" />
        </mxCell>
        <mxCell id="27nJObNFogI77tBs9ip2-156" value="ใส่ไข่เยี่ยวม้าที่เตรียมไว้ลงบนจาน" style="rectangle;whiteSpace=wrap;html=1;" vertex="1" parent="1">
          <mxGeometry x="285" y="1560" width="240" height="40" as="geometry" />
        </mxCell>
      </root>
    </mxGraphModel>
  </diagram>
</mxfile>
